dataset
version=1
nRows=14
nColumns=39
inDegrees=no
endheader
time	sternoclavicular_r2	sternoclavicular_r3	unrotscap_r3	unrotscap_r2	acromioclavicular_r2	acromioclavicular_r3	acromioclavicular_r1	unrothum_r1	unrothum_r3	unrothum_r2	elv_angle	shoulder_elv	shoulder1_r2	shoulder_rot	elbow_flexion	pro_sup	deviation	flexion	cmc_abduction	cmc_flexion	mp_flexion	ip_flexion	mcp2_flexion	mcp2_abduction	pm2_flexion	md2_flexion	mcp3_flexion	mcp3_abduction	pm3_flexion	md3_flexion	mcp4_flexion	mcp4_abduction	pm4_flexion	md4_flexion	mcp5_flexion	mcp5_abduction	pm5_flexion	md5_flexion
7.650000	-0.032026	-0.483079	0.252772	0.148211	0.108815	0.189163	-0.201993	0.081505	-0.043189	0.106410	0.099113	0.027437	0.146525	0.146525	1.132527	1.386249	0.000000	0.000000	0.000000	0.000000	0.000000	0.000000	0.000000	0.000000	0.000000	0.000000	0.000000	0.000000	0.000000	0.000000	0.000000	0.000000	0.000000	0.000000	0.000000	0.000000	0.000000	0.000000
7.655000	-0.032068	-0.483272	0.252779	0.148339	0.108951	0.189137	-0.202006	0.081625	-0.043242	0.106540	0.099240	0.027437	0.146525	0.146525	1.129958	1.387051	0.000000	0.000000	0.000000	0.000000	0.000000	0.000000	0.000000	0.000000	0.000000	0.000000	0.000000	0.000000	0.000000	0.000000	0.000000	0.000000	0.000000	0.000000	0.000000	0.000000	0.000000	0.000000
7.660000	-0.032110	-0.483462	0.252786	0.148466	0.109086	0.189111	-0.202019	0.081744	-0.043293	0.106668	0.099366	0.027437	0.146525	0.146525	1.127411	1.387862	0.000000	0.000000	0.000000	0.000000	0.000000	0.000000	0.000000	0.000000	0.000000	0.000000	0.000000	0.000000	0.000000	0.000000	0.000000	0.000000	0.000000	0.000000	0.000000	0.000000	0.000000	0.000000
7.665000	-0.032152	-0.483649	0.252793	0.148593	0.109220	0.189084	-0.202032	0.081860	-0.043342	0.106797	0.099492	0.027437	0.146525	0.146525	1.124884	1.388682	0.000000	0.000000	0.000000	0.000000	0.000000	0.000000	0.000000	0.000000	0.000000	0.000000	0.000000	0.000000	0.000000	0.000000	0.000000	0.000000	0.000000	0.000000	0.000000	0.000000	0.000000	0.000000
7.670000	-0.032193	-0.483834	0.252799	0.148718	0.109353	0.189058	-0.202044	0.081974	-0.043390	0.106925	0.099618	0.027437	0.146525	0.146525	1.122379	1.389512	0.000000	0.000000	0.000000	0.000000	0.000000	0.000000	0.000000	0.000000	0.000000	0.000000	0.000000	0.000000	0.000000	0.000000	0.000000	0.000000	0.000000	0.000000	0.000000	0.000000	0.000000	0.000000
7.675000	-0.032234	-0.484017	0.252805	0.148844	0.109486	0.189031	-0.202055	0.082086	-0.043437	0.107053	0.099743	0.027437	0.146525	0.146525	1.119895	1.390351	0.000000	0.000000	0.000000	0.000000	0.000000	0.000000	0.000000	0.000000	0.000000	0.000000	0.000000	0.000000	0.000000	0.000000	0.000000	0.000000	0.000000	0.000000	0.000000	0.000000	0.000000	0.000000
7.680000	-0.032275	-0.484197	0.252811	0.148968	0.109619	0.189004	-0.202067	0.082196	-0.043482	0.107180	0.099869	0.027437	0.146525	0.146525	1.117432	1.391199	0.000000	0.000000	0.000000	0.000000	0.000000	0.000000	0.000000	0.000000	0.000000	0.000000	0.000000	0.000000	0.000000	0.000000	0.000000	0.000000	0.000000	0.000000	0.000000	0.000000	0.000000	0.000000
7.685000	-0.032316	-0.484375	0.252816	0.149093	0.109751	0.188978	-0.202078	0.082304	-0.043525	0.107308	0.099994	0.027437	0.146525	0.146525	1.114989	1.392056	0.000000	0.000000	0.000000	0.000000	0.000000	0.000000	0.000000	0.000000	0.000000	0.000000	0.000000	0.000000	0.000000	0.000000	0.000000	0.000000	0.000000	0.000000	0.000000	0.000000	0.000000	0.000000
7.690000	-0.032357	-0.484550	0.252821	0.149216	0.109882	0.188951	-0.202089	0.082410	-0.043568	0.107435	0.100119	0.027437	0.146525	0.146525	1.112568	1.392924	0.000000	0.000000	0.000000	0.000000	0.000000	0.000000	0.000000	0.000000	0.000000	0.000000	0.000000	0.000000	0.000000	0.000000	0.000000	0.000000	0.000000	0.000000	0.000000	0.000000	0.000000	0.000000
7.695000	-0.032397	-0.484723	0.252826	0.149340	0.110013	0.188924	-0.202100	0.082515	-0.043609	0.107562	0.100244	0.027437	0.146525	0.146525	1.110168	1.393801	0.000000	0.000000	0.000000	0.000000	0.000000	0.000000	0.000000	0.000000	0.000000	0.000000	0.000000	0.000000	0.000000	0.000000	0.000000	0.000000	0.000000	0.000000	0.000000	0.000000	0.000000	0.000000
7.700000	-0.032438	-0.484895	0.252831	0.149463	0.110144	0.188897	-0.202111	0.082618	-0.043649	0.107689	0.100370	0.027437	0.146525	0.146525	1.107789	1.394687	0.000000	0.000000	0.000000	0.000000	0.000000	0.000000	0.000000	0.000000	0.000000	0.000000	0.000000	0.000000	0.000000	0.000000	0.000000	0.000000	0.000000	0.000000	0.000000	0.000000	0.000000	0.000000
7.705000	-0.032478	-0.485064	0.252836	0.149586	0.110275	0.188870	-0.202122	0.082719	-0.043688	0.107817	0.100495	0.027437	0.146525	0.146525	1.105432	1.395584	0.000000	0.000000	0.000000	0.000000	0.000000	0.000000	0.000000	0.000000	0.000000	0.000000	0.000000	0.000000	0.000000	0.000000	0.000000	0.000000	0.000000	0.000000	0.000000	0.000000	0.000000	0.000000
7.710000	-0.032519	-0.485231	0.252840	0.149708	0.110405	0.188843	-0.202132	0.082819	-0.043726	0.107944	0.100620	0.027437	0.146525	0.146525	1.103095	1.396491	0.000000	0.000000	0.000000	0.000000	0.000000	0.000000	0.000000	0.000000	0.000000	0.000000	0.000000	0.000000	0.000000	0.000000	0.000000	0.000000	0.000000	0.000000	0.000000	0.000000	0.000000	0.000000
7.715000	-0.032559	-0.485396	0.252845	0.149831	0.110536	0.188816	-0.202143	0.082917	-0.043763	0.108071	0.100746	0.027437	0.146525	0.146525	1.100780	1.397409	0.000000	0.000000	0.000000	0.000000	0.000000	0.000000	0.000000	0.000000	0.000000	0.000000	0.000000	0.000000	0.000000	0.000000	0.000000	0.000000	0.000000	0.000000	0.000000	0.000000	0.000000	0.000000
